<svg width="11" height="22" viewBox="0 0 11 22" fill="none" xmlns="http://www.w3.org/2000/svg">
<mask id="mask0_2049_966" style="mask-type:alpha" maskUnits="userSpaceOnUse" x="0" y="0" width="11" height="22">
<rect width="11" height="22" fill="#D9D9D9"/>
</mask>
<g mask="url(#mask0_2049_966)">
<path d="M10.083 4.10391C10.433 3.30391 11.568 3.30391 11.917 4.10391L13.669 8.12591C13.7416 8.29229 13.8582 8.43577 14.0061 8.54094C14.1541 8.64612 14.3279 8.70902 14.509 8.72291L18.972 9.06491C19.872 9.13391 20.227 10.2649 19.528 10.8359L16.198 13.5589C16.0513 13.6789 15.9417 13.8381 15.8821 14.018C15.8224 14.1979 15.8151 14.391 15.861 14.5749L16.891 18.6939C17.105 19.5519 16.181 20.2459 15.417 19.7999L11.504 17.5189C11.351 17.4296 11.1771 17.3826 11 17.3826C10.8229 17.3826 10.6489 17.4296 10.496 17.5189L6.58296 19.7999C5.81896 20.2459 4.89496 19.5519 5.10896 18.6939L6.13896 14.5749C6.18441 14.391 6.17667 14.1979 6.11665 14.0182C6.05664 13.8386 5.94681 13.6796 5.79996 13.5599L2.46996 10.8369C1.77196 10.2659 2.12796 9.13491 3.02696 9.06591L7.48896 8.72391C7.66998 8.71002 7.8438 8.64712 7.99179 8.54194C8.13977 8.43677 8.25633 8.29329 8.32896 8.12691L10.083 4.10391Z" fill="#FFB400" stroke="#FFB400" stroke-width="2"/>
</g>
</svg>
