<svg width="20" height="20" viewBox="0 0 20 20" fill="none" xmlns="http://www.w3.org/2000/svg">
<rect x="0.1" y="0.1" width="19.8" height="19.8" rx="9.9" stroke="#DADADA" stroke-width="0.2"/>
<g clip-path="url(#clip0_2059_951)">
<path fill-rule="evenodd" clip-rule="evenodd" d="M14.6 10.109C14.6 9.76923 14.5695 9.44252 14.5129 9.12891H10V10.9824H12.5788C12.4677 11.5814 12.1301 12.0889 11.6226 12.4286V13.6309H13.1712C14.0773 12.7967 14.6 11.5683 14.6 10.109Z" fill="#4285F4"/>
<path fill-rule="evenodd" clip-rule="evenodd" d="M10 14.7917C11.2937 14.7917 12.3784 14.3626 13.1712 13.6308L11.6226 12.4285C11.1935 12.716 10.6447 12.8859 10 12.8859C8.75197 12.8859 7.69563 12.043 7.31883 10.9104H5.71797V12.1519C6.50642 13.7179 8.12688 14.7917 10 14.7917Z" fill="#34A853"/>
<path fill-rule="evenodd" clip-rule="evenodd" d="M7.31884 10.9105C7.22301 10.623 7.16856 10.3158 7.16856 10.0001C7.16856 9.68422 7.22301 9.37714 7.31884 9.08962V7.84814H5.71799C5.39346 8.49502 5.20833 9.22685 5.20833 10.0001C5.20833 10.7732 5.39346 11.5051 5.71799 12.1519L7.31884 10.9105Z" fill="#FBBC05"/>
<path fill-rule="evenodd" clip-rule="evenodd" d="M10 7.11403C10.7035 7.11403 11.3351 7.35579 11.8317 7.8306L13.206 6.45626C12.3762 5.68306 11.2915 5.20825 10 5.20825C8.12688 5.20825 6.50642 6.28202 5.71797 7.84802L7.31883 9.0895C7.69563 7.95693 8.75197 7.11403 10 7.11403Z" fill="#EA4335"/>
</g>
<defs>
<clipPath id="clip0_2059_951">
<rect width="10" height="10" fill="white" transform="translate(5 5)"/>
</clipPath>
</defs>
</svg>
