<svg width="20" height="20" viewBox="0 0 20 20" fill="none" xmlns="http://www.w3.org/2000/svg">
<rect width="20" height="20" rx="10" fill="#FEE500"/>
<path d="M9.99596 4.80127C6.88479 4.80127 4.37575 6.80848 4.37575 9.24526C4.37575 10.827 5.41951 12.212 6.98515 13.0028L6.45524 14.982C6.44525 15.0116 6.44372 15.0435 6.45081 15.0739C6.4579 15.1044 6.47333 15.1324 6.49539 15.1546C6.52755 15.1829 6.56893 15.1986 6.61181 15.1987C6.64736 15.1959 6.68109 15.1818 6.70815 15.1586L8.98837 13.6211C9.32496 13.6675 9.66425 13.6916 10.0041 13.6933C13.1113 13.6933 15.6243 11.6861 15.6243 9.24526C15.6243 6.80447 13.1032 4.80127 9.99596 4.80127Z" fill="#392020"/>
<path d="M6.37559 8.56786H5.76137C5.68525 8.57007 5.61006 8.55057 5.54459 8.51165C5.51553 8.49344 5.49054 8.46941 5.4712 8.44108C5.45185 8.41276 5.43857 8.38074 5.43219 8.34704C5.43024 8.32568 5.43024 8.30421 5.43219 8.28285C5.43028 8.24287 5.43804 8.203 5.45481 8.16666C5.47159 8.13032 5.49687 8.09857 5.52853 8.07409C5.59852 8.0234 5.683 7.99662 5.7694 7.99779H7.62007C7.6968 7.99509 7.7725 8.01613 7.83685 8.05801C7.8666 8.07542 7.89212 8.09923 7.91156 8.1277C7.93099 8.15616 7.94387 8.18858 7.94926 8.22262C7.95122 8.24264 7.95122 8.26282 7.94926 8.28285C7.95115 8.3234 7.94341 8.36382 7.92666 8.4008C7.90991 8.43779 7.88464 8.47025 7.85291 8.49558C7.78463 8.5462 7.70097 8.57175 7.61605 8.56786H7.02192V10.6795C7.02433 10.7244 7.01737 10.7694 7.00147 10.8116C6.98558 10.8537 6.9611 10.8921 6.92958 10.9243C6.89936 10.9551 6.86304 10.9792 6.82293 10.9951C6.78283 11.011 6.73985 11.0184 6.69674 11.0167C6.62135 11.0188 6.54755 10.9947 6.48799 10.9484C6.43128 10.9032 6.3928 10.8391 6.3796 10.7678C6.37563 10.7385 6.37563 10.7088 6.3796 10.6795L6.37559 8.56786Z" fill="#FEE500"/>
<path d="M8.12647 8.1542C8.14413 8.08814 8.18559 8.03093 8.24289 7.99361C8.30394 7.95901 8.37351 7.94231 8.44361 7.94544H8.59616C8.67055 7.94277 8.74422 7.96084 8.80893 7.99763C8.8775 8.04374 8.92623 8.11396 8.94542 8.19433L9.74831 10.4625C9.76913 10.5217 9.78655 10.582 9.8005 10.6432C9.80187 10.6686 9.80187 10.694 9.8005 10.7194C9.80186 10.7586 9.79466 10.7975 9.7794 10.8336C9.76415 10.8696 9.74121 10.9019 9.71218 10.9282C9.68406 10.957 9.65029 10.9798 9.61299 10.995C9.5757 11.0101 9.53566 11.0175 9.4954 11.0165C9.43348 11.0227 9.3713 11.0078 9.31886 10.9743C9.26643 10.9408 9.2268 10.8906 9.20636 10.8319L9.03775 10.3381H7.98195L7.81334 10.8319C7.7934 10.8918 7.75329 10.943 7.69985 10.9766C7.64642 11.0103 7.58296 11.0244 7.52029 11.0165C7.4524 11.0183 7.38591 10.9971 7.33161 10.9563C7.2787 10.9142 7.243 10.8543 7.23124 10.7877C7.22911 10.765 7.22911 10.7421 7.23124 10.7194C7.22435 10.6796 7.22435 10.6389 7.23124 10.599C7.23124 10.5549 7.25935 10.5067 7.2754 10.4625L8.12647 8.1542ZM8.52792 8.68012L8.14654 9.88446H8.90527L8.52792 8.68012Z" fill="#FEE500"/>
<path d="M9.89244 8.28266C9.88836 8.19256 9.92011 8.10453 9.98075 8.03778C10.0116 8.00668 10.0486 7.98238 10.0894 7.96648C10.1302 7.95057 10.1739 7.94338 10.2176 7.9454C10.2928 7.94453 10.3662 7.96854 10.4264 8.01367C10.4821 8.06076 10.5192 8.12626 10.5307 8.19832C10.5347 8.22628 10.5347 8.25469 10.5307 8.28266V10.3943H11.6347C11.7112 10.3933 11.7865 10.4141 11.8515 10.4545C11.8807 10.4725 11.9058 10.4965 11.9252 10.5248C11.9446 10.5532 11.9578 10.5853 11.9639 10.6191C11.9639 10.6191 11.9639 10.6592 11.9639 10.6793C11.9658 10.7193 11.958 10.7591 11.9413 10.7954C11.9245 10.8318 11.8992 10.8636 11.8676 10.8881C11.7976 10.9387 11.7131 10.9655 11.6267 10.9643H10.2698C10.1834 10.9699 10.0975 10.9474 10.0249 10.9001C9.96001 10.8516 9.91676 10.7795 9.90448 10.6994C9.90154 10.6553 9.90154 10.611 9.90448 10.5669L9.89244 8.28266Z" fill="#FEE500"/>
<path d="M12.0362 8.28286C12.0338 8.19303 12.0653 8.1056 12.1245 8.03798C12.1847 7.98331 12.2619 7.95102 12.3431 7.94663C12.4242 7.94225 12.5044 7.966 12.5701 8.01387C12.6271 8.06055 12.6656 8.12602 12.6785 8.19852C12.6805 8.22659 12.6805 8.25479 12.6785 8.28286V9.26638L13.6942 8.09414C13.7333 8.05415 13.7749 8.01665 13.8186 7.98177C13.8599 7.95722 13.9072 7.94467 13.9551 7.94561C14.0253 7.94522 14.0939 7.96624 14.1518 8.00583C14.1791 8.02421 14.2024 8.04793 14.2204 8.07552C14.2383 8.10311 14.2505 8.13402 14.2562 8.16642C14.2578 8.17437 14.2578 8.18258 14.2562 8.19053C14.2543 8.1998 14.2543 8.20935 14.2562 8.21861C14.2561 8.26085 14.245 8.30236 14.2241 8.33906C14.2028 8.37793 14.1772 8.41424 14.1478 8.44741L13.4814 9.17807L14.2843 10.4225V10.4627C14.326 10.5202 14.3585 10.5839 14.3807 10.6514V10.6714C14.3853 10.718 14.3786 10.7649 14.3611 10.8083C14.3436 10.8516 14.3159 10.8901 14.2803 10.9203C14.2133 10.971 14.1314 10.9978 14.0475 10.9966C13.9917 10.9989 13.9363 10.9864 13.8869 10.9605C13.8334 10.9246 13.7894 10.8764 13.7584 10.82L13.0117 9.61564L12.6544 9.989V10.6594C12.6568 10.7492 12.6253 10.8366 12.5661 10.9043C12.5344 10.9353 12.4967 10.9595 12.4552 10.9754C12.4138 10.9912 12.3696 10.9985 12.3253 10.9966C12.2512 10.9982 12.1789 10.9741 12.1205 10.9284C12.0638 10.8832 12.0253 10.819 12.0121 10.7477C12.0082 10.7184 12.0082 10.6887 12.0121 10.6594L12.0362 8.28286Z" fill="#FEE500"/>
</svg>
