<svg width="20" height="20" viewBox="0 0 20 20" fill="none" xmlns="http://www.w3.org/2000/svg">
<mask id="mask0_2059_958" style="mask-type:luminance" maskUnits="userSpaceOnUse" x="0" y="0" width="20" height="20">
<path d="M0 10C0 15.5228 4.47715 20 10 20C15.5228 20 20 15.5228 20 10C20 4.47715 15.5228 0 10 0C4.47715 0 0 4.47715 0 10Z" fill="white"/>
</mask>
<g mask="url(#mask0_2059_958)">
<path d="M18 20H2C0.9 20 0 19.1 0 18V2C0 0.9 0.9 0 2 0H18C19.1 0 20 0.9 20 2V18C20 19.1 19.1 20 18 20Z" fill="#03C75A"/>
<path d="M11.35 10.25L8.50002 6.19995H6.15002V13.8H8.65002V9.74995L11.5 13.8H13.85V6.19995H11.35V10.25Z" fill="white"/>
</g>
</svg>
